<svg width="94" height="201" viewBox="0 0 94 201" fill="none" xmlns="http://www.w3.org/2000/svg">
<path d="M84.1541 129.21H85.4408C88.5766 129.21 91.4501 127.46 92.8889 124.674C93.5029 123.484 93.8234 122.166 93.8234 120.827V116.921L91.7791 99.2955H77.8716L77.0485 105.93C76.8368 107.636 76.4782 109.322 75.9768 110.966L74.9953 114.186C74.4452 115.99 74.2728 117.888 74.4888 119.762L74.5958 120.69C74.7607 122.121 75.2449 123.497 76.0124 124.716C77.774 127.513 80.8483 129.21 84.1541 129.21Z" fill="#333333"/>
<path d="M41.2976 0.133789C50.904 1.2673 58.3614 9.57901 58.3614 19.6642C58.3614 29.7493 50.904 38.061 41.2976 39.1945V0.133789Z" fill="#333333"/>
<path d="M22.8995 16.5042C22.8995 24.3349 28.2378 30.8917 35.399 32.5827V0.425618C28.2378 2.11663 22.8995 8.67344 22.8995 16.5042Z" fill="#333333"/>
<path d="M19.0373 119.028L19.7395 109.548L20.0325 99.2955H10.2596V110.25L10.9618 119.028L11.7735 122.68C12.1199 124.239 13.5021 125.348 15.0986 125.348C16.7636 125.348 18.1846 124.144 18.4584 122.502L19.0373 119.028Z" fill="#333333"/>
<path d="M0.428589 85.1552L3.3489 63.8426C3.90955 59.7508 5.19308 55.7913 7.13957 52.1488L9.12497 48.4336C10.222 46.3807 11.7564 44.5938 13.6197 43.199C16.3695 41.1408 19.7118 40.0284 23.1465 40.0284H32.9275C33.0023 40.0284 33.0767 40.0298 33.1508 40.0324C33.2659 40.0298 33.3812 40.0284 33.4968 40.0284H35.399V40.5477V63.6285V93.3969H16.7994L16.5796 76.5756L16.8897 73.36C16.4639 74.2293 16.1413 75.1631 15.939 76.1472L14.4336 83.4714C14.2033 84.592 14.0656 85.7298 14.022 86.873L13.773 93.3969H0.428589V85.1552Z" fill="#333333"/>
<path d="M20.3822 187.766L22.5481 121.965C22.5767 121.097 22.7538 120.287 23.05 119.549C22.8174 118.416 22.7153 117.237 22.7598 116.028L23.3753 99.2955H35.399V118.229V131.169V193.702C33.8283 195.492 31.524 196.623 28.9525 196.623C24.1061 196.623 20.2228 192.609 20.3822 187.766Z" fill="#333333"/>
<path d="M54.0247 200.134C61.0852 200.134 66.9141 194.615 67.2991 187.565L71.0466 118.954C73.7117 113.326 74.8646 106.596 75.1444 99.2955H41.2976V135.483V159.076V190.694C42.9477 196.147 48.0127 200.134 54.0247 200.134Z" fill="#333333"/>
<path d="M77.3213 88.6663L74.4009 67.3536C73.8403 63.2619 72.5568 59.3024 70.6103 55.6599L68.6249 51.9446C67.5279 49.8918 65.9935 48.1049 64.1301 46.7101C61.3804 44.6519 58.038 43.5395 54.6033 43.5395H52.7437H44.8223H41.2976V44.6552V55.6462V64.8668V70.926V93.3969H66.7498C66.5134 86.9012 65.1903 80.8152 63.0346 75.5011C63.3449 75.8926 63.6354 76.3033 63.9042 76.7322L64.276 77.3255C65.1175 78.6683 65.7395 80.1366 66.1186 81.6753L66.8529 84.6549C67.5094 87.3194 67.8413 90.0535 67.8413 92.7977V93.3969H77.7327L77.3213 88.6663Z" fill="#333333"/>
</svg>
