<svg width="79" height="200" viewBox="0 0 79 200" fill="none" xmlns="http://www.w3.org/2000/svg">
<path d="M56.1429 16.7857C56.1429 26.0562 48.7876 33.5714 39.7143 33.5714C30.6411 33.5714 23.2857 26.0562 23.2857 16.7857C23.2857 7.51522 30.6411 0 39.7143 0C48.7876 0 56.1429 7.51522 56.1429 16.7857Z" fill="#5EBF4B"/>
<path d="M38.1601 190.848C38.2292 195.882 34.1674 200 29.1329 200C24.2751 200 20.2881 196.156 20.1108 191.302L17.7648 127.084C17.7197 125.851 17.898 124.684 18.2574 123.609C17.7172 122.094 17.4136 120.465 17.3914 118.767L16.8572 77.8896L17.1726 74.6187C16.7395 75.503 16.4113 76.4528 16.2056 77.4539L14.6744 84.9039C14.4401 86.0438 14.3 87.2011 14.2556 88.364L13.3641 111.72L12.4059 121.402L11.8316 123.982C11.3273 126.246 9.31836 127.857 6.99832 127.857C4.80641 127.857 2.87532 126.416 2.25149 124.315L1.5957 122.106C1.45671 121.638 1.36066 121.158 1.30876 120.672L0.428589 112.437V86.6167L3.39909 64.9377C3.96938 60.7757 5.27497 56.7481 7.25492 53.043L9.27444 49.2639C10.3903 47.1758 11.9511 45.3581 13.8465 43.9394C16.6434 41.8458 20.0433 40.7143 23.537 40.7143H33.4861H45.9425H55.8916C59.3854 40.7143 62.7852 41.8458 65.5821 43.9394C67.4775 45.3581 69.0383 47.1758 70.1542 49.2639L72.1737 53.043C74.1536 56.7481 75.4592 60.7757 76.0295 64.9377L79 86.6167V112.437L78.1198 120.672C78.0679 121.158 77.9719 121.638 77.8329 122.106L77.1771 124.315C76.5533 126.416 74.6222 127.857 72.4303 127.857C70.1102 127.857 68.1013 126.246 67.597 123.982L67.0227 121.402L66.0645 111.72L65.173 88.364C65.1286 87.2011 64.9885 86.0438 64.7543 84.9039L63.223 77.4539C63.0173 76.4528 62.6891 75.503 62.256 74.6187L62.5714 77.8896L62.0372 118.767C62.015 120.465 61.7114 122.094 61.1712 123.609C61.5306 124.684 61.7089 125.851 61.6638 127.084L59.3178 191.302C59.1404 196.156 55.1535 200 50.2957 200C45.2612 200 41.1994 195.882 41.2685 190.848L42.0548 133.571H37.3738L38.1601 190.848Z" fill="#5EBF4B"/>
</svg>
