<svg width="110" height="200" viewBox="0 0 110 200" fill="none" xmlns="http://www.w3.org/2000/svg">
<path d="M74.0351 19.6491C74.0351 30.501 65.395 39.2982 54.7368 39.2982C44.0787 39.2982 35.4386 30.501 35.4386 19.6491C35.4386 8.79721 44.0787 0 54.7368 0C65.395 0 74.0351 8.79721 74.0351 19.6491Z" fill="#EB2340"/>
<path d="M53.0551 186.442C53.2078 193.884 47.2165 200 39.7724 200C32.7166 200 26.8916 194.484 26.5068 187.439L22.8462 120.42C19.1148 113.575 17.8947 104.889 17.8947 95.4386C17.8947 87.1063 20.8806 79.369 25.4317 72.9633C23.834 73.9546 22.3862 75.2032 21.1535 76.6784C19.7073 78.4092 18.6029 80.3989 17.8989 82.5416L17.2984 84.3694C16.3763 87.1758 15.9064 90.1111 15.9064 93.0652V98.9474L16.7638 105.858C16.9754 107.564 17.3337 109.248 17.8349 110.891L18.8157 114.108C19.3654 115.912 19.5377 117.809 19.3218 119.681L19.2149 120.609C19.0501 122.039 18.5663 123.413 17.7992 124.631C16.0388 127.427 12.9665 129.123 9.66292 129.123H8.37703C5.24333 129.123 2.37166 127.374 0.93383 124.589C0.320202 123.401 0 122.083 0 120.746V116.842L3.27485 88.6059L6.93781 68.5564C7.832 63.662 9.79219 59.0243 12.6793 54.9723L14.1934 52.8473C16.0954 50.1778 18.5638 47.9616 21.422 46.357C24.7484 44.4896 28.4991 43.5088 32.3138 43.5088H40.3509H46.5782H62.8955H68.4211H77.1599C80.9746 43.5088 84.7253 44.4896 88.0517 46.357C90.9099 47.9616 93.3783 50.1778 95.2803 52.8473L96.7944 54.9723C99.6815 59.0243 101.642 63.662 102.536 68.5564L106.199 88.6059L109.474 116.842V120.746C109.474 122.083 109.153 123.401 108.54 124.589C107.102 127.374 104.23 129.123 101.097 129.123H99.8108C96.5072 129.123 93.4349 127.427 91.6745 124.631C90.9074 123.413 90.4236 122.039 90.2588 120.609L90.1518 119.681C89.936 117.809 90.1083 115.912 90.658 114.108L91.6388 110.891C92.14 109.248 92.4983 107.564 92.7099 105.858L93.5673 98.9474V93.0652C93.5673 90.1111 93.0974 87.1758 92.1753 84.3694L91.5748 82.5416C90.8708 80.3989 89.7664 78.4092 88.3202 76.6784C86.7873 74.8439 84.9218 73.36 82.849 72.2852C87.6753 78.8197 90.8772 86.8101 90.8772 95.4386C90.8772 104.191 89.8307 112.288 86.7119 118.873L82.9669 187.439C82.5821 194.484 76.7571 200 69.7012 200C62.2572 200 56.2659 193.884 56.4186 186.442L57.4667 135.372C56.4683 135.416 55.4417 135.439 54.386 135.439C53.5762 135.439 52.7835 135.425 52.0075 135.399L53.0551 186.442Z" fill="#EB2340"/>
</svg>
