<svg width="83" height="200" viewBox="0 0 83 200" fill="none" xmlns="http://www.w3.org/2000/svg">
<path d="M61.2732 19.6491C61.2732 30.501 52.633 39.2982 41.9749 39.2982C31.3168 39.2982 22.6767 30.501 22.6767 19.6491C22.6767 8.79721 31.3168 0 41.9749 0C52.633 0 61.2732 8.79721 61.2732 19.6491Z" fill="#FB7A38"/>
<path d="M40.0464 189.295C40.1421 195.179 35.3988 200 29.5142 200C23.8739 200 19.2346 195.557 18.9906 189.922L15.6591 112.982C15.6591 112.404 15.7292 111.855 15.8593 111.34C14.3761 106.466 13.5539 101.089 13.5539 95.4386C13.5539 88.1573 14.9191 81.3303 17.3048 75.4493C16.9947 75.8405 16.7044 76.251 16.4358 76.6796L16.0643 77.2725C15.2233 78.6144 14.6017 80.0818 14.2228 81.6195L13.4891 84.5971C12.8329 87.2598 12.5012 89.9922 12.5012 92.7346V98.9474L13.3827 108.421L14.6885 114.132C15.0992 115.928 15.2275 117.777 15.0688 119.612L14.9281 121.239C14.8399 122.259 14.571 123.255 14.1339 124.18L13.5995 125.312C12.5005 127.639 10.158 129.123 7.58469 129.123C4.83798 129.123 2.37371 127.435 1.38172 124.873L1.09782 124.14C0.749893 123.242 0.571411 122.287 0.571411 121.323V116.842L3.02755 88.6059L5.94594 67.3072C6.50623 63.2182 7.78891 59.2613 9.73412 55.6212L11.7182 51.9084C12.8145 49.8569 14.3479 48.0711 16.21 46.6773C18.9579 44.6204 22.2981 43.5088 25.7306 43.5088H27.589H35.5051H47.743H55.6591H57.5175C60.95 43.5088 64.2901 44.6204 67.0381 46.6773C68.9002 48.0711 70.4336 49.8569 71.5299 51.9084L73.514 55.6212C75.4592 59.2613 76.7419 63.2182 77.3021 67.3072L80.2205 88.6059L82.6767 116.842V121.323C82.6767 122.287 82.4982 123.242 82.1503 124.14L81.8664 124.873C80.8744 127.435 78.4101 129.123 75.6634 129.123C73.0901 129.123 70.7476 127.639 69.6486 125.312L69.1142 124.18C68.6771 123.255 68.4082 122.259 68.32 121.239L68.1793 119.612C68.0206 117.777 68.1489 115.928 68.5595 114.132L69.8654 108.421L70.7468 98.9474V92.7346C70.7468 89.9922 70.4152 87.2598 69.759 84.5971L69.0253 81.6195C68.6464 80.0818 68.0248 78.6144 67.1838 77.2725L66.8123 76.6796C66.5437 76.251 66.2534 75.8405 65.9433 75.4493C68.3289 81.3303 69.6942 88.1573 69.6942 95.4386C69.6942 101.089 68.872 106.466 67.3888 111.34C67.5189 111.855 67.589 112.404 67.589 112.982L64.2575 189.922C64.0135 195.557 59.3741 200 53.7338 200C47.8493 200 43.106 195.179 43.2017 189.295L44.0804 135.288C43.271 135.388 42.4517 135.439 41.624 135.439C40.7964 135.439 39.9771 135.388 39.1676 135.288L40.0464 189.295Z" fill="#FB7A38"/>
</svg>
