<svg width="59" height="200" viewBox="0 0 59 200" fill="none" xmlns="http://www.w3.org/2000/svg">
<path d="M43.2857 16.7857C43.2857 26.0562 37.2096 33.5714 29.7143 33.5714C22.219 33.5714 16.1429 26.0562 16.1429 16.7857C16.1429 7.51522 22.219 0 29.7143 0C37.2096 0 43.2857 7.51522 43.2857 16.7857Z" fill="#1D96DB"/>
<path d="M28.1644 191.158C28.2311 196.021 24.3069 200 19.4428 200C14.5131 200 10.563 195.918 10.7251 190.991L12.9283 124.059C12.9573 123.176 13.1375 122.352 13.4388 121.602C13.2022 120.45 13.0983 119.25 13.1436 118.02L14.3572 85.0325L13.8229 71.7735C13.1642 72.7801 12.7075 73.9372 12.5144 75.192L10.7857 86.4286L10.0714 111.429L9.35716 121.071L8.76825 124.605C8.48981 126.276 7.04438 127.5 5.35071 127.5C3.72682 127.5 2.32081 126.372 1.96854 124.787L1.14287 121.071L0.428589 112.143V86.4286L2.72861 64.0033C3.09822 60.3996 3.96828 56.8651 5.31368 53.5016L7.35343 48.4022C7.96855 46.8644 8.88962 45.4675 10.0608 44.2964C12.3544 42.0028 15.4651 40.7143 18.7087 40.7143H25.0714C25.4534 40.7143 25.8245 40.7604 26.1796 40.8474C26.8363 40.7596 27.5067 40.7143 28.188 40.7143H31.2406C31.9219 40.7143 32.5923 40.7596 33.249 40.8474C33.6041 40.7604 33.9752 40.7143 34.3572 40.7143H40.7199C43.9635 40.7143 47.0742 42.0028 49.3678 44.2964C50.539 45.4675 51.4601 46.8644 52.0752 48.4022L54.1149 53.5016C55.4603 56.8651 56.3304 60.3996 56.7 64.0033L59 86.4286V112.143L58.2857 121.071L57.4601 124.787C57.1078 126.372 55.7018 127.5 54.0779 127.5C52.3842 127.5 50.9388 126.276 50.6604 124.605L50.0714 121.071L49.3572 111.429L48.6429 86.4286L46.9142 75.192C46.7211 73.9372 46.2644 72.7801 45.6057 71.7735L45.0714 85.0325L46.285 118.02C46.3303 119.25 46.2264 120.45 45.9898 121.602C46.2911 122.352 46.4713 123.176 46.5003 124.059L48.7035 190.991C48.8656 195.918 44.9155 200 39.9858 200C35.1217 200 31.1975 196.021 31.2643 191.158L32.055 133.553C31.8034 133.565 31.55 133.571 31.2952 133.571H28.1334C27.8786 133.571 27.6252 133.565 27.3736 133.553L28.1644 191.158Z" fill="#1D96DB"/>
</svg>
